{"title":"18+ Status Update 2018 Movies 720p HDRip x264 5.1 +Sample ☻rDX☻","magnet":"magnet:?xt=urn:btih:998de957cb263961e7f0bbc9b0ba8901f50566dd&dn=18%2B+Status+Update+2018+Movies+720p+HDRip+x264+5.1+%2BSample+%E2%98%BBrDX%E2%98%BB&tr=udp%3A%2F%2Ftracker.leechers-paradise.org%3A6969&tr=udp%3A%2F%2Fzer0day.ch%3A1337&tr=udp%3A%2F%2Fopen.demonii.com%3A1337&tr=udp%3A%2F%2Ftracker.coppersurfer.tk%3A6969&tr=udp%3A%2F%2Fexodus.desync.com%3A6969","uploader":"basicssom","categoryP":"video","categoryS":"hd___movies","size":"1062580082","seeders":"0","leechers":"60","description":"----------------------------------------------------------------\r\n18+ Status Update 2018 Movies 720p HDRip x264 5.1 with Sample &#x263B;rDX&#x263B;\r\n\r\nSCREEN SHOTS &amp; POSTER:\r\n   <a href=\"\nhttp://iphonehosting.eu/2018/3/call/index.html\" rel=\"nofollow\" target=\"_NEW\">\nhttp://iphonehosting.eu/2018/3/call/index.html</a> <a href=\"\nhttp://iphonehosting.eu/2018/3/call/1.html\" rel=\"nofollow\" target=\"_NEW\">\nhttp://iphonehosting.eu/2018/3/call/1.html</a> <a href=\"\nhttp://iphonehosting.eu/2018/3/call/2.html\" rel=\"nofollow\" target=\"_NEW\">\nhttp://iphonehosting.eu/2018/3/call/2.html</a>   <a href=\"\nhttp://iphonehosting.eu/2018/3/call/3.html\" rel=\"nofollow\" target=\"_NEW\">\nhttp://iphonehosting.eu/2018/3/call/3.html</a>   <a href=\"\nhttp://iphonehosting.eu/2018/3/call/4.html\" rel=\"nofollow\" target=\"_NEW\">\nhttp://iphonehosting.eu/2018/3/call/4.html</a>   <a href=\"\nhttp://iphonehosting.eu/2018/3/call/5.html\" rel=\"nofollow\" target=\"_NEW\">\nhttp://iphonehosting.eu/2018/3/call/5.html</a>   <a href=\"\nhttp://iphonehosting.eu/2018/3/call/6.html\" rel=\"nofollow\" target=\"_NEW\">\nhttp://iphonehosting.eu/2018/3/call/6.html</a>   <a href=\"\nhttp://iphonehosting.eu/2018/3/call/7.html\" rel=\"nofollow\" target=\"_NEW\">\nhttp://iphonehosting.eu/2018/3/call/7.html</a>   <a href=\"\nhttp://iphonehosting.eu/2018/3/call/8.html\" rel=\"nofollow\" target=\"_NEW\">\nhttp://iphonehosting.eu/2018/3/call/8.html</a>   <a href=\"\nhttp://iphonehosting.eu/2018/3/call/9.html\" rel=\"nofollow\" target=\"_NEW\">\nhttp://iphonehosting.eu/2018/3/call/9.html</a>   <a href=\"\nhttp://iphonehosting.eu/2018/3/call/10.html\" rel=\"nofollow\" target=\"_NEW\">\nhttp://iphonehosting.eu/2018/3/call/10.html</a>\r\n\r\nFile size                                : 1 004 MiB\r\nDuration                                 : 1 h 46 min\r\nOverall bit rate                         : 1 320 kb/s\r\nMovie name                               : 18+ Status Update 2018 Movies 720p HDRip x264 5.1 &#x263B;rDX&#x263B;\r\n\r\nVideo\r\nID                                       : 2\r\nFormat                                   : AVC\r\nFormat/Info                              : Advanced Video Codec\r\nFormat profile                           : <a href=\"/cdn-cgi/l/email-protection\" class=\"__cf_email__\" data-cfemail=\"b0f8d9d7d8f0fc84\">[email&#xA0;protected]</a>\r\nFormat settings, CABAC                   : Yes\r\nFormat settings, ReFrames                : 4 frames\r\nCodec ID                                 : V_MPEG4/ISO/AVC\r\nDuration                                 : 1 h 46 min\r\nBit rate                                 : 934 kb/s\r\nWidth                                    : 1 280 pixels\r\nHeight                                   : 532 pixels\r\nDisplay aspect ratio                     : 2.40:1\r\nFrame rate mode                          : Constant\r\nFrame rate                               : 23.976 (24000/1001) FPS\r\nColor space                              : YUV\r\nChroma subsampling                       : 4:2:0\r\nBit depth                                : 8 bits\r\nScan type                                : Progressive\r\nBits/(Pixel*Frame)                       : 0.057\r\nStream size                              : 692 MiB (69%)\r\nTitle                                    : &#x263B;rDX&#x263B;\r\nWriting library                          : x264\r\n\r\nAudio\r\nID                                       : 1\r\nFormat                                   : AC-3\r\nFormat/Info                              : Audio Coding 3\r\nMode extension                           : CM (complete main)\r\nFormat settings, Endianness              : Big\r\nCodec ID                                 : A_AC3\r\nDuration                                 : 1 h 46 min\r\nBit rate mode                            : Constant\r\nBit rate                                 : 384 kb/s\r\nChannel(s)                               : 6 channels\r\nChannel positions                        : Front: L C R, Side: L R, LFE\r\nSampling rate                            : 48.0 kHz\r\nFrame rate                               : 31.250 FPS (1536 spf)\r\nBit depth                                : 16 bits\r\nCompression mode                         : Lossy\r\nDelay relative to video                  : 57 ms\r\nStream size                              : 292 MiB (29%)\r\nTitle                                    : &#x263B;rDX&#x263B;\r\nLanguage                                 : English\r\nDefault                                  : Yes\r\nForced                                   : No","last_updated":"2018-04-01T12:18:05.910Z","parsed":{"xt":"urn:btih:998de957cb263961e7f0bbc9b0ba8901f50566dd","dn":"18  Status Update 2018 Movies 720p HDRip x264 5.1  Sample ☻rDX☻","tr":["udp://exodus.desync.com:6969","udp://open.demonii.com:1337","udp://tracker.coppersurfer.tk:6969","udp://tracker.leechers-paradise.org:6969","udp://zer0day.ch:1337"],"infoHash":"998de957cb263961e7f0bbc9b0ba8901f50566dd","infoHashBuffer":{"type":"Buffer","data":[153,141,233,87,203,38,57,97,231,240,187,201,176,186,137,1,245,5,102,221]},"name":"18  Status Update 2018 Movies 720p HDRip x264 5.1  Sample ☻rDX☻","announce":["udp://exodus.desync.com:6969","udp://open.demonii.com:1337","udp://tracker.coppersurfer.tk:6969","udp://tracker.leechers-paradise.org:6969","udp://zer0day.ch:1337"],"urlList":[]}}